With: Edward Norton, Edward Furlong and Fairuza Balk

Danny Vinyard is een tiener die helemaal onder invloed staat van zijn oudere broer, de skinhead Derek. Wanneer Danny op school een enthousiast verslag maakt over Hitlers 'Mein Kampf', stelt het schoolhoofd hem voor de keus, of een opstel schrijven over zijn broer Derek, of van school getrapt worden. Dereks haat tegen andere rassen vloeit voort uit de moord op zijn vader. Derek sluit zich aan bij een bende en belandt in de gevangenis voor moord. Weer vrij is Derek veranderd. Hij wil een aantal mensen een lesje leren, waaronder zijn eigen broertje...

A former neo-nazi skinhead tries to prevent his younger brother from going down the same wrong path that he did. 

------------------ Dutch Friends ------------------
You can find my Friends at: http://www.Film-Test.nl 
------ They got my dutchs subs ---- and more ------

General:

Complete name                    : American History X\American History X.avi
Format                           : AVI
Format/Info                      : Audio Video Interleave
File size                        : 1.76 GiB
Duration                         : 1h 53mn
Overall bit rate                 : 2 214 Kbps

Video:

Format                           : MPEG-4 Visual
Format profile                   : Simple@L3
Format settings, BVOP            : No
Format settings, QPel            : No
Format settings, GMC             : No warppoints
Format settings, Matrix          : Default (H.263)
Codec ID                         : XVID
Codec ID/Hint                    : XviD
Duration                         : 1h 53mn
Bit rate                         : 1 755 Kbps
Width                            : 652 pixels
Height                           : 352 pixels
Display aspect ratio             : 1.852
Frame rate                       : 25.000 fps
Color space                      : YUV
Chroma subsampling               : 4:2:0
Bit depth                        : 8 bits
Scan type                        : Progressive
Bits/(Pixel*Frame)               : 0.306
Stream size                      : 1.40 GiB (79%)
Writing library                  : XviD 1.1.2 (UTC 2006-11-01)

Audio:

Format                           : AC-3
Format/Info                      : Audio Coding 3
Mode extension                   : CM (complete main)
Codec ID                         : 2000
Duration                         : 1h 53mn
Bit rate mode                    : Constant
Bit rate                         : 448 Kbps
Channel(s)                       : 6 channels
Channel positions                : Front: L C R, Side: L R, LFE
Sampling rate                    : 48.0 KHz
Bit depth                        : 16 bits
Stream size                      : 365 MiB (20%)
Alignment                        : Aligned on interleaves
Interleave, duration             : 32 ms (0.80 video frame)
Interleave, preload duration     : 32 ms

